<svg height="511pt" viewBox="-47 0 511 511.998" width="511pt" xmlns="http://www.w3.org/2000/svg"><path d="m246.316406 293.539062h46.996094v80.296876h-46.996094zm0 0"/><path d="m415.203125 163.855469c-2.851563-3.402344-7.058594-5.367188-11.496094-5.367188h-118.890625v105.050781h9.375c16.058594 0 29.121094 13.0625 29.121094 29.121094v82.054688c0 16.058594-13.0625 29.121094-29.121094 29.121094h-48.753906c-16.058594 0-29.121094-13.0625-29.121094-29.121094v-82.054688c0-16.058594 13.0625-29.121094 29.121094-29.121094h9.378906v-105.050781h-185.15625c-4.441406 0-8.648437 1.964844-11.5 5.367188-2.851562 3.402343-4.046875 7.890625-3.269531 12.261719l6.203125 34.898437h-45.59375c-4.519531 0-8.800781 2.035156-11.648438 5.546875-2.847656 3.507812-3.960937 8.117188-3.03125 12.539062l24.074219 114.457032c4.066407 19.339844 14.757813 36.851562 30.101563 49.304687 12.023437 9.757813 26.496094 16.058594 41.703125 18.339844l4.964843 27.910156c3.585938 20.167969 11.445313 37.742188 22.730469 50.816407 12.28125 14.230468 28 22.066406 44.261719 22.066406h136.058594c16.257812 0 31.976562-7.835938 44.257812-22.066406 11.285156-13.074219 19.144532-30.648438 22.730469-50.816407l46.773437-262.996093c.773438-4.371094-.421874-8.859376-3.273437-12.261719zm-360.953125 173.527343-20.269531-96.371093h32.449219l24.546874 138.007812c-18.246093-6.386719-32.589843-21.964843-36.726562-41.636719zm0 0"/><path d="m150.246094 121.351562c0 8.28125 6.714844 15 15 15 8.121094 0 14.734375-6.457031 14.992187-14.515624.273438-.320313.640625-.726563.9375-1.054688 3.035157-3.355469 8.679688-9.601562 8.679688-20.691406 0-11.09375-5.644531-17.339844-8.675781-20.695313-.160157-.175781-.34375-.378906-.519532-.574219.175782-.199218.355469-.402343.519532-.578124 3.03125-3.355469 8.675781-9.601563 8.675781-20.695313 0-11.089844-5.644531-17.335937-8.675781-20.691406-.160157-.179688-.34375-.382813-.519532-.582031.175782-.199219.359375-.398438.519532-.578126 3.03125-3.355468 8.675781-9.601562 8.675781-20.695312 0-8.285156-6.714844-15-15-15-8.121094 0-14.734375 6.457031-14.988281 14.519531-.277344.324219-.648438.730469-.945313 1.0625-3.03125 3.355469-8.675781 9.601563-8.675781 20.691407 0 11.09375 5.644531 17.339843 8.675781 20.695312.164063.179688.34375.378906.519531.582031-.175781.195313-.355468.398438-.519531.578125-3.03125 3.355469-8.675781 9.601563-8.675781 20.691406 0 11.09375 5.644531 17.335938 8.675781 20.695313.160156.175781.34375.375.519531.574219-.175781.195312-.355468.394531-.515625.570312-3.035156 3.355469-8.679687 9.597656-8.679687 20.691406zm0 0"/><path d="m216.875 121.351562c0 8.28125 6.71875 15 15 15 8.121094 0 14.734375-6.457031 14.992188-14.515624.277343-.320313.644531-.726563.941406-1.054688 3.03125-3.355469 8.679687-9.601562 8.679687-20.691406 0-11.09375-5.644531-17.339844-8.679687-20.695313-.160156-.175781-.339844-.378906-.519532-.574219.179688-.199218.359376-.402343.519532-.578124 3.035156-3.355469 8.679687-9.601563 8.679687-20.695313 0-11.089844-5.644531-17.335937-8.675781-20.691406-.164062-.179688-.347656-.382813-.523438-.582031.179688-.199219.359376-.398438.523438-.578126 3.03125-3.355468 8.675781-9.601562 8.675781-20.695312 0-8.285156-6.714843-15-15-15-8.125 0-14.738281 6.457031-14.992187 14.519531-.277344.324219-.644532.730469-.941406 1.0625-3.035157 3.355469-8.679688 9.601563-8.679688 20.691407 0 11.09375 5.644531 17.339843 8.679688 20.695312.160156.179688.34375.378906.519531.582031-.175781.195313-.359375.398438-.519531.578125-3.035157 3.355469-8.679688 9.601563-8.679688 20.691406 0 11.09375 5.644531 17.335938 8.679688 20.695313.160156.175781.339843.375.515624.574219-.175781.195312-.355468.394531-.515624.570312-3.03125 3.355469-8.679688 9.597656-8.679688 20.691406zm0 0"/><path d="m283.507812 121.351562c0 8.28125 6.714844 15 15 15 8.121094 0 14.734376-6.457031 14.992188-14.515624.273438-.320313.640625-.726563.9375-1.054688 3.035156-3.355469 8.679688-9.601562 8.679688-20.691406 0-11.09375-5.644532-17.339844-8.675782-20.695313-.160156-.175781-.34375-.378906-.519531-.574219.175781-.199218.355469-.402343.519531-.578124 3.03125-3.355469 8.675782-9.601563 8.675782-20.695313 0-11.089844-5.644532-17.335937-8.675782-20.691406-.160156-.179688-.34375-.382813-.519531-.582031.175781-.199219.359375-.398438.519531-.578126 3.03125-3.355468 8.675782-9.601562 8.675782-20.695312 0-8.285156-6.714844-15-15-15-8.121094 0-14.734376 6.457031-14.988282 14.519531-.277344.324219-.648437.730469-.945312 1.0625-3.03125 3.355469-8.675782 9.601563-8.675782 20.691407 0 11.09375 5.644532 17.339843 8.675782 20.695312.164062.179688.34375.378906.523437.582031-.179687.195313-.359375.398438-.523437.578125-3.03125 3.355469-8.675782 9.601563-8.675782 20.691406 0 11.09375 5.644532 17.335938 8.675782 20.695313.160156.175781.34375.375.519531.574219-.175781.195312-.355469.394531-.515625.570312-3.035156 3.355469-8.679688 9.597656-8.679688 20.691406zm0 0"/></svg>